<svg version="1.1" id="Layer_1" xmlns="http://www.w3.org/2000/svg" xmlns:xlink="http://www.w3.org/1999/xlink" x="0px" y="0px"
	 width="100%" viewBox="0 0 270 258" enable-background="new 0 0 270 258" xml:space="preserve">
<path fill="#00539C" opacity="1.000000" stroke="none" 
	d="
M89.762970,43.856190 
	C103.482872,35.963055 116.836601,28.164785 130.376541,20.704453 
	C132.064987,19.774136 135.195770,19.825895 136.889191,20.783117 
	C167.263290,37.952221 197.480591,55.398632 227.844879,72.585281 
	C231.931641,74.898445 233.781540,77.426094 233.750626,82.335861 
	C233.537674,116.144539 233.549377,149.955688 233.742035,183.764603 
	C233.768646,188.432404 232.078232,190.975555 228.158142,193.199570 
	C197.655991,210.504517 167.275757,228.024399 136.759781,245.304703 
	C135.153793,246.214142 132.190842,246.379776 130.647675,245.503662 
	C99.722549,227.946518 68.937706,210.142456 38.041885,192.533264 
	C35.056042,190.831467 33.889793,188.963074 33.901367,185.510651 
	C34.019173,150.368622 34.009361,115.225945 33.911179,80.083794 
	C33.902729,77.059784 34.784618,75.146805 37.426624,73.654472 
	C54.799343,63.841499 72.117691,53.932274 89.762970,43.856190 
M217.999252,168.911377 
	C219.568100,169.860489 221.136932,170.809586 222.705780,171.758698 
	C223.133514,170.106003 223.928879,168.454453 223.933975,166.800461 
	C224.012848,141.172958 223.990433,115.545143 223.985504,89.917397 
	C223.985275,88.753731 224.390884,87.093155 223.794327,86.538315 
	C222.801971,85.615334 220.832764,84.657181 219.854187,85.073936 
	C218.571503,85.620201 217.851227,87.487068 216.568085,89.018425 
	C216.568085,89.018425 216.200180,89.165787 215.496994,89.082542 
	C214.301559,90.332878 213.106125,91.583214 211.497360,93.183823 
	C211.070328,93.516098 210.643295,93.848366 209.490952,94.104767 
	C207.817276,93.841591 205.906952,94.013031 204.505493,93.249924 
	C184.075470,82.125725 163.695526,70.908966 143.355484,59.620857 
	C140.451096,58.009007 137.961761,57.839062 134.972351,59.518032 
	C112.231850,72.289978 89.418076,84.931412 66.640991,97.638336 
	C63.201042,99.557419 59.864307,101.826874 55.434792,99.013237 
	C55.434792,99.013237 55.112762,98.779060 55.015423,98.116112 
	C53.636921,97.108772 52.258419,96.101433 50.491714,94.928940 
	C50.491714,94.928940 50.151485,94.679482 50.029476,94.022202 
	C48.398552,92.612404 46.767628,91.202606 44.074471,88.874588 
	C43.622688,92.488609 43.144390,94.551643 43.140270,96.615623 
	C43.089127,122.217407 43.106228,147.819336 43.109966,173.421219 
	C43.110111,174.417892 42.750782,175.840881 43.260242,176.320892 
	C44.264515,177.267075 46.333527,178.568604 46.948929,178.167709 
	C48.913898,176.887711 50.414864,174.895401 52.505749,172.823715 
	C52.933090,172.490723 53.360432,172.157715 54.491352,171.896912 
	C55.695000,170.661728 56.898643,169.426544 58.385010,167.928101 
	C58.385010,167.928101 58.731060,167.756393 59.513939,167.934158 
	C61.504780,168.720657 63.612850,169.296021 65.468391,170.326218 
	C84.935730,181.134323 104.398712,191.951630 123.767204,202.935150 
	C127.213982,204.889755 130.027527,204.792130 133.429062,202.884277 
	C154.734894,190.934311 176.095001,179.079590 197.524109,167.352234 
	C201.526932,165.161621 205.923477,163.690460 210.532425,162.273849 
	C210.982956,162.592133 211.433487,162.910431 211.980530,163.894241 
	C213.747513,165.181030 215.514496,166.467819 217.614059,167.944839 
	C217.614059,167.944839 217.888153,168.212524 217.999252,168.911377 
M219.427917,185.819977 
	C218.996658,184.445908 218.967972,182.654282 218.057907,181.776840 
	C215.434723,179.247772 212.634750,176.792755 209.537155,174.913788 
	C208.109009,174.047516 205.417252,173.837051 203.991379,174.609055 
	C183.542282,185.680862 163.203857,196.957397 142.871201,208.243027 
	C141.627579,208.933289 139.747620,210.071655 139.703476,211.069641 
	C139.416626,217.554901 139.556259,224.059052 139.556259,231.702606 
	C166.823959,216.112610 192.864456,201.224243 219.427917,185.819977 
M119.947670,57.408821 
	C127.494743,55.040394 130.418976,49.983887 128.838531,42.242817 
	C128.642258,41.281479 128.814499,40.249569 128.764114,39.252983 
	C128.532822,34.678383 127.810158,34.268135 123.816978,36.536858 
	C103.467484,48.098419 83.115028,59.654896 62.790157,71.259628 
	C58.139412,73.915031 53.593460,76.753952 48.464699,79.828911 
	C51.155270,82.097107 53.249805,83.497871 54.883938,85.313118 
	C58.809772,89.674065 62.636028,89.492973 67.595512,86.641037 
	C84.706421,76.801437 102.050529,67.367378 119.947670,57.408821 
z"/>
<path fill="#00539C" opacity="1.000000" stroke="none" 
	d="
M209.853607,94.142708 
	C208.709396,97.469193 206.462189,96.640877 204.083878,95.314095 
	C191.313644,88.189949 178.539688,81.072456 165.759644,73.965904 
	C158.060303,69.684570 150.439911,65.243103 142.570999,61.298569 
	C140.773132,60.397331 137.665054,60.450939 135.890320,61.412727 
	C111.486465,74.637985 87.175453,88.036484 62.944435,101.576408 
	C59.627998,103.429581 57.722004,102.698685 55.881020,99.501373 
	C59.864307,101.826874 63.201042,99.557419 66.640991,97.638336 
	C89.418076,84.931412 112.231850,72.289978 134.972351,59.518032 
	C137.961761,57.839062 140.451096,58.009007 143.355484,59.620857 
	C163.695526,70.908966 184.075470,82.125725 204.505493,93.249924 
	C205.906952,94.013031 207.817276,93.841591 209.853607,94.142708 
z"/>
<path fill="#00539C" opacity="1.000000" stroke="none" 
	d="
M59.122498,167.845276 
	C60.418503,167.678650 62.467869,166.934067 63.738735,167.623840 
	C80.978493,176.980927 98.112877,186.532257 115.266495,196.047852 
	C118.755486,197.983292 122.077332,200.317490 125.749283,201.784332 
	C127.573372,202.513000 130.402557,202.400925 132.121429,201.465073 
	C156.066513,188.427887 179.875244,175.140396 203.805222,162.075165 
	C205.509537,161.144638 207.900314,161.471405 210.055115,161.550415 
	C205.923477,163.690460 201.526932,165.161621 197.524109,167.352234 
	C176.095001,179.079590 154.734894,190.934311 133.429062,202.884277 
	C130.027527,204.792130 127.213982,204.889755 123.767204,202.935150 
	C104.398712,191.951630 84.935730,181.134323 65.468391,170.326218 
	C63.612850,169.296021 61.504780,168.720657 59.122498,167.845276 
z"/>
<path fill="#00539C" opacity="1.000000" stroke="none" 
	d="
M50.090481,94.350838 
	C48.788567,94.188217 47.425644,93.696953 45.494488,93.000870 
	C45.494488,120.750984 45.494488,148.300400 45.494488,176.787262 
	C47.888737,175.299667 49.625141,174.220810 51.728279,173.160065 
	C50.414864,174.895401 48.913898,176.887711 46.948929,178.167709 
	C46.333527,178.568604 44.264515,177.267075 43.260242,176.320892 
	C42.750782,175.840881 43.110111,174.417892 43.109966,173.421219 
	C43.106228,147.819336 43.089127,122.217407 43.140270,96.615623 
	C43.144390,94.551643 43.622688,92.488609 44.074471,88.874588 
	C46.767628,91.202606 48.398552,92.612404 50.090481,94.350838 
z"/>
<path fill="#00539C" opacity="1.000000" stroke="none" 
	d="
M217.943695,168.561951 
	C218.994492,168.416519 220.100845,168.620514 221.631683,168.902786 
	C221.631683,141.647690 221.631683,114.616165 221.631683,87.024605 
	C220.138336,87.695374 218.885208,88.258240 217.260574,88.803513 
	C217.851227,87.487068 218.571503,85.620201 219.854187,85.073936 
	C220.832764,84.657181 222.801971,85.615334 223.794327,86.538315 
	C224.390884,87.093155 223.985275,88.753731 223.985504,89.917397 
	C223.990433,115.545143 224.012848,141.172958 223.933975,166.800461 
	C223.928879,168.454453 223.133514,170.106003 222.705780,171.758698 
	C221.136932,170.809586 219.568100,169.860489 217.943695,168.561951 
z"/>
<path fill="#00539C" opacity="1.000000" stroke="none" 
	d="
M211.932281,163.561478 
	C213.621201,164.523682 215.358398,165.818649 217.188538,167.434113 
	C215.514496,166.467819 213.747513,165.181030 211.932281,163.561478 
z"/>
<path fill="#00539C" opacity="1.000000" stroke="none" 
	d="
M55.064095,98.447586 
	C53.743443,97.771385 52.374123,96.763710 50.942360,95.425064 
	C52.258419,96.101433 53.636921,97.108772 55.064095,98.447586 
z"/>
<path fill="#00539C" opacity="1.000000" stroke="none" 
	d="
M215.848587,89.124161 
	C214.997253,90.405121 213.794327,91.644463 212.251053,92.858673 
	C213.106125,91.583214 214.301559,90.332878 215.848587,89.124161 
z"/>
<path fill="#00539C" opacity="1.000000" stroke="none" 
	d="
M54.139565,171.860809 
	C55.000080,170.601532 56.212391,169.378326 57.763496,168.173248 
	C56.898643,169.426544 55.695000,170.661728 54.139565,171.860809 
z"/>
<path fill="#00539C" opacity="1.000000" stroke="none" 
	d="
M139.211426,113.784050 
	C139.211426,113.784050 139.559906,113.968971 139.778015,114.443848 
	C141.270416,117.315308 142.544708,119.711899 143.819016,122.108490 
	C144.022430,122.375244 144.258453,122.609077 144.777649,123.278992 
	C145.716400,124.138031 146.404587,124.528091 147.092773,124.918144 
	C148.282089,126.094833 149.471405,127.271523 150.878235,129.028656 
	C152.469223,132.255463 154.019531,133.513611 156.145569,130.252411 
	C156.682373,129.681976 157.219193,129.111542 158.258804,128.256042 
	C159.130630,127.267403 159.499634,126.563828 159.868652,125.860260 
	C159.868652,125.860260 159.997025,125.473198 160.414856,125.220413 
	C161.519135,123.605759 162.205551,122.243896 162.891968,120.882027 
	C164.039993,119.662720 165.188004,118.443405 166.938492,117.082596 
	C168.051193,116.330170 168.561432,115.719238 169.071686,115.108322 
	C169.498276,114.776657 169.924850,114.444992 170.976364,113.991913 
	C177.231308,112.386414 177.962570,112.781372 177.881439,118.235779 
	C177.843140,120.811691 176.857346,123.360512 176.649170,125.949615 
	C176.220703,131.279114 176.026428,136.627441 175.735779,141.968018 
	C175.741638,142.684372 175.747498,143.400742 175.358521,144.622589 
	C174.153519,148.766724 173.696106,152.530914 172.455429,156.016312 
	C170.271576,162.151367 167.609146,168.116089 165.147125,174.152145 
	C165.147141,174.152145 164.831100,174.424408 164.237183,174.322098 
	C163.096313,172.636139 162.189529,171.078613 162.072388,169.463776 
	C161.765747,165.236511 161.803970,160.984222 161.704742,156.741913 
	C161.743942,156.058151 161.783127,155.374390 162.150162,154.098053 
	C163.134171,149.565048 163.790344,145.624619 164.446518,141.684189 
	C163.943268,141.490036 163.440002,141.295898 162.936737,141.101761 
	C158.947906,143.429886 154.992477,145.790253 154.118500,151.125381 
	C154.118500,151.125381 154.006790,151.521301 153.577759,151.759277 
	C152.053787,152.384628 150.958832,152.772003 149.863892,153.159378 
	C149.863892,153.159378 149.992630,153.042618 149.955475,152.765930 
	C149.334915,151.958878 148.751511,151.428497 148.168106,150.898117 
	C148.029892,150.244705 147.891678,149.591309 147.840454,148.210907 
	C146.988617,142.581985 145.633835,137.930023 140.615295,134.904465 
	C140.003540,136.362411 139.323090,137.360992 139.175232,138.433014 
	C137.732788,148.891418 137.039352,159.511078 132.191940,169.195312 
	C132.191940,169.195312 132.044128,169.560562 131.596436,169.781097 
	C130.096771,169.620148 128.224213,169.388474 128.122894,168.833466 
	C127.326797,164.472549 126.982857,160.030457 126.236679,155.658249 
	C126.022560,154.403641 125.078636,152.384048 124.247269,152.264954 
	C117.536858,151.303360 110.786537,150.402145 104.021576,150.115448 
	C99.457542,149.922012 97.676819,148.166321 97.988701,143.716843 
	C98.214539,140.494858 98.109009,137.249619 98.151253,134.014755 
	C98.176140,133.603348 98.201035,133.191940 98.642578,132.322021 
	C99.371536,131.129562 100.041420,130.342484 99.941444,129.669815 
	C98.807655,122.041466 99.868294,114.725761 102.799706,107.638016 
	C102.860580,107.490807 102.894325,107.296005 102.852837,107.148056 
	C101.011681,100.581612 103.216850,94.684998 105.867279,88.861069 
	C105.867279,88.861069 105.976112,88.474480 106.500221,88.262558 
	C115.398613,88.655663 123.772903,89.260696 132.147186,89.865730 
	C132.417419,90.030220 132.654617,90.233284 132.961151,90.994476 
	C133.428818,92.011787 133.794128,92.509560 134.159424,93.007324 
	C134.186340,93.446564 134.213272,93.885811 133.925003,94.866150 
	C132.412109,96.351265 131.341736,97.800774 129.991882,98.140778 
	C126.488464,99.023232 122.880844,99.665665 119.279602,99.937630 
	C115.621643,100.213860 113.181107,101.371140 113.123543,105.436501 
	C113.066956,109.432831 111.763817,114.006836 118.006920,114.824844 
	C125.153381,115.761200 132.251419,116.355980 139.211426,113.784050 
M110.020363,133.710770 
	C109.389664,137.127487 110.447594,139.151581 114.274254,139.220383 
	C115.396538,139.240570 116.615234,139.652771 117.605026,140.212143 
	C120.619492,141.915741 123.543808,143.778854 126.448654,145.546677 
	C126.898689,145.052872 127.281830,144.830826 127.315956,144.564102 
	C127.631180,142.100555 127.837112,139.622711 128.166809,137.161346 
	C129.871597,124.434242 130.270325,126.132690 118.115189,126.185608 
	C113.298447,126.206589 110.459686,127.870735 110.020363,133.710770 
z"/>
<path fill="#00539C" opacity="1.000000" stroke="none" 
	d="
M97.871468,134.281815 
	C98.109009,137.249619 98.214539,140.494858 97.988701,143.716843 
	C97.676819,148.166321 99.457542,149.922012 104.021576,150.115448 
	C110.786537,150.402145 117.536858,151.303360 124.247269,152.264954 
	C125.078636,152.384048 126.022560,154.403641 126.236679,155.658249 
	C126.982857,160.030457 127.326797,164.472549 128.122894,168.833466 
	C128.224213,169.388474 130.096771,169.620148 131.496887,169.951096 
	C131.088791,171.208252 130.332550,172.515930 128.917038,174.963654 
	C125.318031,167.734543 123.707222,161.476685 124.589722,154.396744 
	C118.095001,153.517548 111.612991,152.278442 105.077705,151.847717 
	C97.065010,151.319626 95.411484,149.867386 96.175133,141.847977 
	C96.408974,139.392258 97.106499,136.980667 97.871468,134.281815 
z"/>
<path fill="#00539C" opacity="1.000000" stroke="none" 
	d="
M139.097076,113.464325 
	C132.251419,116.355980 125.153381,115.761200 118.006920,114.824844 
	C111.763817,114.006836 113.066956,109.432831 113.123543,105.436501 
	C113.181107,101.371140 115.621643,100.213860 119.279602,99.937630 
	C122.880844,99.665665 126.488464,99.023232 129.991882,98.140778 
	C131.341736,97.800774 132.412109,96.351265 133.916931,95.196327 
	C135.881607,98.359917 133.295258,99.116905 131.070084,99.619423 
	C127.056274,100.525856 122.986382,101.407440 118.897369,101.695572 
	C114.649719,101.994888 114.929466,104.737061 114.779533,107.612457 
	C114.628830,110.502525 114.714119,112.854698 118.613235,113.047279 
	C124.706955,113.348244 130.812820,115.220581 136.824753,112.421852 
	C137.323776,112.189545 138.253235,112.881882 139.097076,113.464325 
z"/>
<path fill="#00539C" opacity="1.000000" stroke="none" 
	d="
M132.525131,169.105560 
	C137.039352,159.511078 137.732788,148.891418 139.175232,138.433014 
	C139.323090,137.360992 140.003540,136.362411 140.615295,134.904465 
	C145.633835,137.930023 146.988617,142.581985 147.808685,147.877792 
	C145.916992,144.916962 144.144073,141.562256 142.371170,138.207550 
	C138.599609,148.639496 140.270920,160.153336 132.525131,169.105560 
z"/>
<path fill="#00539C" opacity="1.000000" stroke="none" 
	d="
M105.539223,88.953201 
	C103.216850,94.684998 101.011681,100.581612 102.852837,107.148056 
	C102.894325,107.296005 102.860580,107.490807 102.799706,107.638016 
	C99.868294,114.725761 98.807655,122.041466 99.941444,129.669815 
	C100.041420,130.342484 99.371536,131.129562 98.710182,132.020020 
	C98.074913,124.708214 96.243027,117.160271 100.501961,110.019577 
	C101.482681,108.375259 101.736359,105.506783 100.995369,103.768166 
	C98.329041,97.512039 101.904182,93.391602 105.539223,88.953201 
z"/>
<path fill="#00539C" opacity="1.000000" stroke="none" 
	d="
M176.041107,141.694214 
	C176.026428,136.627441 176.220703,131.279114 176.649170,125.949615 
	C176.857346,123.360512 177.843140,120.811691 177.881439,118.235779 
	C177.962570,112.781372 177.231308,112.386414 171.197815,113.836716 
	C172.683929,112.926636 174.729996,111.158707 176.414032,111.454170 
	C177.778610,111.693596 179.583115,114.380417 179.646561,116.040771 
	C179.775269,119.409485 178.838882,122.815628 178.375443,126.210976 
	C177.683746,131.278702 177.021317,136.350403 176.041107,141.694214 
z"/>
<path fill="#00539C" opacity="1.000000" stroke="none" 
	d="
M165.476089,174.075958 
	C167.609146,168.116089 170.271576,162.151367 172.455429,156.016312 
	C173.696106,152.530914 174.153519,148.766724 175.300629,144.976837 
	C175.804535,155.711182 172.291748,165.356628 165.476089,174.075958 
z"/>
<path fill="#00539C" opacity="1.000000" stroke="none" 
	d="
M132.071350,89.521530 
	C123.772903,89.260696 115.398613,88.655663 106.583160,88.079681 
	C108.138092,87.503822 110.110565,86.496483 112.135208,86.377548 
	C116.387978,86.127739 120.702698,86.029305 124.923790,86.491478 
	C127.349976,86.757118 129.642700,88.241547 132.071350,89.521530 
z"/>
<path fill="#00539C" opacity="1.000000" stroke="none" 
	d="
M154.442383,151.039398 
	C154.992477,145.790253 158.947906,143.429886 162.936737,141.101761 
	C163.440002,141.295898 163.943268,141.490036 164.446518,141.684189 
	C163.790344,145.624619 163.134171,149.565048 162.185242,153.757370 
	C161.892502,151.167786 161.892502,148.326324 161.892502,145.484863 
	C161.542252,145.222733 161.191986,144.960602 160.841736,144.698471 
	C158.816574,146.783447 156.791428,148.868423 154.442383,151.039398 
z"/>
<path fill="#00539C" opacity="1.000000" stroke="none" 
	d="
M161.367554,156.933472 
	C161.803970,160.984222 161.765747,165.236511 162.072388,169.463776 
	C162.189529,171.078613 163.096313,172.636139 164.062805,174.436554 
	C163.890884,175.299622 163.299408,175.945908 162.707932,176.592194 
	C161.920868,175.425018 160.468246,174.261963 160.460983,173.089966 
	C160.428009,167.769699 160.802505,162.446915 161.367554,156.933472 
z"/>
<path fill="#00539C" opacity="1.000000" stroke="none" 
	d="
M143.886902,121.705002 
	C142.544708,119.711899 141.270416,117.315308 139.929794,114.569817 
	C144.114365,114.912872 143.706314,118.296875 143.886902,121.705002 
z"/>
<path fill="#00539C" opacity="1.000000" stroke="none" 
	d="
M155.766022,130.193527 
	C154.019531,133.513611 152.469223,132.255463 151.103973,129.242126 
	C152.536942,129.294983 153.961716,129.714813 155.766022,130.193527 
z"/>
<path fill="#00539C" opacity="1.000000" stroke="none" 
	d="
M149.912460,153.493744 
	C150.958832,152.772003 152.053787,152.384628 153.490295,151.945450 
	C153.487167,154.430527 152.547928,155.777786 149.912460,153.493744 
z"/>
<path fill="#00539C" opacity="1.000000" stroke="none" 
	d="
M162.560669,120.948128 
	C162.205551,122.243896 161.519135,123.605759 160.504944,125.037491 
	C160.861252,123.742989 161.545319,122.378609 162.560669,120.948128 
z"/>
<path fill="#00539C" opacity="1.000000" stroke="none" 
	d="
M148.118774,151.224548 
	C148.751511,151.428497 149.334915,151.958878 149.882629,152.813141 
	C149.254440,152.608353 148.661926,152.079681 148.118774,151.224548 
z"/>
<path fill="#00539C" opacity="1.000000" stroke="none" 
	d="
M134.355011,92.824280 
	C133.794128,92.509560 133.428818,92.011787 133.096680,91.186417 
	C133.603439,91.452950 134.077026,92.047096 134.355011,92.824280 
z"/>
<path fill="#00539C" opacity="1.000000" stroke="none" 
	d="
M159.556381,125.932526 
	C159.499634,126.563828 159.130630,127.267403 158.436981,128.022537 
	C158.489609,127.384331 158.866867,126.694565 159.556381,125.932526 
z"/>
<path fill="#00539C" opacity="1.000000" stroke="none" 
	d="
M168.748932,115.088753 
	C168.561432,115.719238 168.051193,116.330170 167.212036,116.917465 
	C167.397476,116.285614 167.911819,115.677406 168.748932,115.088753 
z"/>
<path fill="#00539C" opacity="1.000000" stroke="none" 
	d="
M147.039688,124.598030 
	C146.404587,124.528091 145.716400,124.138031 144.978973,123.426910 
	C145.615356,123.496536 146.300980,123.887230 147.039688,124.598030 
z"/>
<path fill="#EEF7ED" opacity="1.000000" stroke="none" 
	d="
M110.058144,133.292847 
	C110.459686,127.870735 113.298447,126.206589 118.115189,126.185608 
	C130.270325,126.132690 129.871597,124.434242 128.166809,137.161346 
	C127.837112,139.622711 127.631180,142.100555 127.315956,144.564102 
	C127.281830,144.830826 126.898689,145.052872 126.448654,145.546677 
	C123.543808,143.778854 120.619492,141.915741 117.605026,140.212143 
	C116.615234,139.652771 115.396538,139.240570 114.274254,139.220383 
	C110.447594,139.151581 109.389664,137.127487 110.058144,133.292847 
z"/>
</svg>